<?xml version="1.0" encoding="UTF-8" standalone="no"?>
<svg
   xmlns:dc="http://purl.org/dc/elements/1.1/"
   xmlns:cc="http://creativecommons.org/ns#"
   xmlns:rdf="http://www.w3.org/1999/02/22-rdf-syntax-ns#"
   xmlns:svg="http://www.w3.org/2000/svg"
   xmlns="http://www.w3.org/2000/svg"
   xmlns:sodipodi="http://sodipodi.sourceforge.net/DTD/sodipodi-0.dtd"
   xmlns:inkscape="http://www.inkscape.org/namespaces/inkscape"
   inkscape:export-ydpi="96"
   inkscape:export-xdpi="96"
   inkscape:export-filename="/home/rs/godot/tbpg/art/entities/sword.png"
   inkscape:version="1.0 (4035a4fb49, 2020-05-01)"
   sodipodi:docname="sword.svg"
   id="svg11"
   version="1.1"
   height="450"
   width="450"
   viewBox="0 0 450 450"
   style="isolation:isolate">
  <metadata
     id="metadata15">
    <rdf:RDF>
      <cc:Work
         rdf:about="">
        <dc:format>image/svg+xml</dc:format>
        <dc:type
           rdf:resource="http://purl.org/dc/dcmitype/StillImage" />
      </cc:Work>
    </rdf:RDF>
  </metadata>
  <sodipodi:namedview
     inkscape:current-layer="svg11"
     inkscape:window-maximized="0"
     inkscape:window-y="18"
     inkscape:window-x="1920"
     inkscape:cy="264.45847"
     inkscape:cx="203.10021"
     inkscape:zoom="1.3188889"
     showgrid="false"
     id="namedview13"
     inkscape:window-height="1420"
     inkscape:window-width="2556"
     inkscape:pageshadow="2"
     inkscape:pageopacity="0"
     guidetolerance="10"
     gridtolerance="10"
     objecttolerance="10"
     borderopacity="1"
     bordercolor="#666666"
     pagecolor="#ffffff"
     inkscape:document-rotation="0" />
  <defs
     id="defs5">
    <clipPath
       id="_clipPath_1A0b5UkMboS5uMV871gcgvhMEVg3LePt">
      <rect
         id="rect2"
         height="450"
         width="450" />
    </clipPath>
  </defs>
  <g
     style="fill:#ff0000"
     id="g9"
     clip-path="url(#_clipPath_1A0b5UkMboS5uMV871gcgvhMEVg3LePt)"
     transform="matrix(0.79665304,0,0,0.79665304,45.753007,45.753096)">
    <path
       style="fill:#ff0000"
       id="path7"
       fill="rgb(0,0,0)"
       d="m 424.885,16.03 c -0.624,0.11 -1.235,0.287 -1.822,0.526 l -92.748,30.821 c -1.403,0.454 -2.664,1.263 -3.661,2.349 l -195.652,214.21 -41.538,-28.99 c -3.281,-2.393 -7.811,-2.06 -10.708,0.786 l -20.899,20.096 c -3.238,3.252 -3.238,8.509 0,11.761 l 37.099,37.091 -42.85,54.336 C 32.16,359.877 16.06,376.237 16.06,396.383 16.06,417.055 33.005,434 53.678,434 c 20.146,0 36.505,-16.1 37.358,-36.054 l 54.336,-42.834 37.091,37.091 c 3.251,3.238 8.509,3.238 11.761,0 l 20.113,-20.899 c 2.82,-2.909 3.148,-7.422 0.777,-10.708 l -28.99,-41.538 214.21,-195.66 c 1.086,-0.997 1.896,-2.258 2.349,-3.662 l 30.829,-92.739 c 0.89,-2.665 0.371,-5.6 -1.379,-7.799 -1.725,-2.213 -4.452,-3.405 -7.248,-3.168 z M 412.614,37.455 387.268,112.689 176.193,305.207 164.181,287.97 c -0.56,-0.822 -1.269,-1.53 -2.09,-2.09 L 144.845,273.867 337.379,62.792 Z m -327.07,214.979 40.493,28.48 c 0.919,1.045 2.089,1.856 3.394,2.341 l 21.951,15.423 15.674,22.462 c 0.483,1.097 1.195,2.078 2.09,2.875 l 28.472,40.485 -9.404,9.931 L 75.621,261.846 Z m 21.425,64.267 26.382,26.382 -46.236,36.581 c -3.651,-7.21 -9.508,-13.067 -16.719,-16.719 z m -53.291,58.783 c 11.619,0 20.898,9.279 20.898,20.899 0,11.619 -9.279,20.898 -20.898,20.898 -11.62,0 -20.899,-9.279 -20.899,-20.898 0,-11.62 9.279,-20.899 20.899,-20.899 z" />
  </g>
</svg>
